<svg xmlns="http://www.w3.org/2000/svg" fill="none" viewBox="0 0 64 37" height="37" width="64">
<g clip-path="url(#clip0_1016_2654)">
<path fill="#0F2341" d="M47.2263 1.596C45.7177 -0.321485 42.3153 1.71919 40.823 2.63509C39.7757 3.27782 38.6633 3.99018 37.8059 4.87394C36.6338 6.08442 35.9663 7.68054 35.5702 9.28737C34.5934 13.2563 34.6748 17.4983 34.9136 21.5529C35.0384 23.6471 35.2663 25.7467 35.7764 27.7874C36.1942 29.4371 36.7857 31.0975 37.8818 32.4365C39.092 33.9094 40.7687 34.5093 42.6246 34.7664C43.5145 34.8896 44.3719 34.9271 45.2673 34.8414C46.32 34.7342 47.3619 34.5254 48.4255 34.5146C50.3519 34.4932 52.2024 35.3877 54.1342 35.0663C55.7296 34.8039 57.249 33.9255 58.4917 32.94C64.3577 28.2641 64.7158 19.4104 63.2724 12.6724C62.453 8.85889 60.684 4.94893 57.6397 2.36193C56.0117 0.980049 54.1125 0.23555 51.9744 0.0641547C49.8364 -0.107241 47.3239 0.0695108 45.327 0.996118C44.3774 1.43532 45.2022 2.82255 46.1464 2.38335C47.7418 1.64421 49.7496 1.56922 51.4861 1.64421C53.2225 1.71919 54.921 2.23873 56.3156 3.35281C58.763 5.31314 60.3312 8.26436 61.2157 11.2049C62.1003 14.1454 62.4259 17.509 62.2631 20.6905C62.1003 23.8721 61.2754 27.4017 59.1428 30.0209C58.2258 31.1457 57.1133 32.1044 55.8164 32.7739C55.1978 33.0953 54.5032 33.3899 53.8086 33.497C52.9349 33.6309 52.0341 33.4274 51.1822 33.256C50.4387 33.1113 49.6899 32.956 48.9302 32.9185C48.0348 32.8703 47.1394 32.9989 46.2549 33.1167C44.513 33.347 42.7169 33.3952 41.0346 32.7846C37.9144 31.6545 37.1927 27.4178 36.8128 24.5951C36.319 20.9423 36.2376 17.1126 36.5578 13.4384C36.7206 11.5905 36.9648 9.63552 37.7191 7.92157C38.2888 6.62539 39.1896 5.70414 40.3346 4.89537C41.3765 4.15622 42.4889 3.45993 43.6665 2.9511C44.3394 2.65651 45.5875 2.13161 46.065 2.74221C46.7053 3.55634 47.8503 2.41549 47.2154 1.60671L47.2263 1.596Z"></path>
<path fill="#0F2341" d="M45.658 2.64641C46.7379 4.13005 47.4325 5.86543 47.5844 7.69187C47.7526 9.72719 47.1394 11.4411 46.5479 13.3533C45.2673 17.4935 47.1177 21.7517 47.5464 25.8866C47.8069 28.3932 47.8232 30.916 47.6115 33.4226C47.5247 34.451 49.1526 34.4456 49.2395 33.4226C49.6193 28.8806 49.1038 24.4886 48.1759 20.0431C47.7146 17.8417 47.4813 15.7314 48.1867 13.5514C48.8054 11.6393 49.3643 9.82895 49.2178 7.79363C49.0604 5.65119 48.3332 3.57837 47.0635 1.82693C46.4557 0.99673 45.0448 1.79479 45.658 2.6357V2.64641Z"></path>
<path fill="#0F2341" d="M29.6886 7.94908C30.177 5.47456 26.6769 4.33371 24.8699 3.77668C23.7303 3.42317 22.5365 3.11252 21.3427 2.99468C19.3349 2.79651 17.3651 3.55172 15.6395 4.51046C12.1448 6.45473 9.08968 9.20241 6.25706 11.9769C4.88416 13.3159 3.58723 14.7353 2.45852 16.2778C1.32981 17.8204 0.298775 19.5558 0.0491562 21.4786C-0.200462 23.4015 0.613511 25.1368 1.73137 26.7062C2.78953 28.1898 4.33608 29.1486 5.54076 30.4929C6.64777 31.7249 7.17414 33.3585 8.32455 34.5636C9.47497 35.7687 11.3417 36.4704 12.9859 36.781C20.4365 38.1736 27.3715 32.8121 31.6476 27.3168C34.1438 24.1085 36.0539 20.1289 36.0268 16.01C36.0105 13.798 35.2345 11.8216 33.8616 10.0969C32.6081 8.51683 30.9801 6.87786 29.0917 6.06373C28.1421 5.65667 27.3118 7.03855 28.2723 7.45097C29.8026 8.10441 31.0453 9.33096 32.136 10.5468C33.2267 11.7626 34.1438 13.3105 34.3446 15.0245C34.7298 18.3078 33.4166 21.7089 31.691 24.4566C29.9654 27.2043 27.6646 29.5663 25.1195 31.5588C22.5745 33.5513 19.4 35.2224 16.0247 35.3884C14.4402 35.4688 12.8177 35.2492 11.3525 34.6225C10.7339 34.3601 10.0936 34.0333 9.61063 33.562C9.04627 33.0157 8.66099 32.3247 8.27029 31.6606C7.48344 30.3162 6.63149 29.1914 5.44851 28.163C4.18957 27.0758 3.09342 26.0152 2.28487 24.553C0.466996 21.2751 3.12055 17.8204 5.25316 15.3887C7.57027 12.7482 10.2455 10.2897 13.0564 8.16868C14.6193 6.99034 16.3123 5.79593 18.1628 5.09963C19.693 4.52118 21.1148 4.51046 22.683 4.86397C23.9257 5.14784 25.1846 5.50134 26.3405 6.03695C26.8126 6.25655 27.2956 6.50294 27.6917 6.84037C27.8328 6.96356 27.9739 7.09211 28.0607 7.25279C28.1258 7.37063 28.1367 7.50453 28.1367 7.53131C27.9359 8.54361 29.5041 8.9721 29.7049 7.9598L29.6886 7.94908Z"></path>
<path fill="#0F2341" d="M27.8647 7.35934C27.436 9.19113 26.5244 10.8676 25.1786 12.2013C23.6972 13.6742 21.8956 14.3062 20.0397 15.1739C18.1839 16.0416 16.7296 17.5092 15.4652 19.1106C14.2008 20.7121 12.8985 22.485 11.4442 24.0436C9.74568 25.8593 7.87355 27.5197 5.86574 28.9927C5.03549 29.6033 5.84404 30.9959 6.68514 30.3799C10.3697 27.6804 13.4031 24.4668 16.1489 20.8621C17.4296 19.1803 18.7971 17.552 20.756 16.6147C21.7762 16.1273 22.8561 15.7791 23.8437 15.2275C24.6957 14.7508 25.4879 14.1562 26.1934 13.4814C27.7996 11.9388 28.9392 9.94099 29.4438 7.78783C29.6772 6.78088 28.1089 6.3524 27.8756 7.35934H27.8647Z"></path>
</g>
<defs>
<clipPath id="clip0_1016_2654">
<rect fill="white" height="37" width="64"></rect>
</clipPath>
</defs>
</svg>
