<svg xmlns="http://www.w3.org/2000/svg" fill="none" viewBox="0 0 64 64" height="64" width="64">
<g clip-path="url(#clip0_910_2407)">
<path fill="#023150" d="M41.7798 26.0597C41.7798 26.8097 41.6898 27.4197 41.5498 28.2797C40.2398 29.2597 38.3198 28.9897 37.5798 27.6997C37.0098 24.3397 40.4798 24.6297 41.7898 26.0597H41.7798Z" clip-rule="evenodd" fill-rule="evenodd"></path>
<path fill="#023150" d="M21.2102 28.7507C21.6702 27.6807 22.1602 26.1007 23.3102 26.1807C23.9402 26.2307 24.9902 27.3207 25.0602 28.0507C25.1602 29.0107 24.3802 30.5807 23.0702 30.5007C22.0602 30.4407 21.8202 29.4407 21.2002 28.7507H21.2102Z" clip-rule="evenodd" fill-rule="evenodd"></path>
<path fill="#023150" d="M43.1799 35.5306C43.3699 36.8206 42.3299 37.8706 41.6599 38.6906C40.1199 40.5706 37.7899 41.9906 35.3499 42.9006C29.6699 43.9506 26.0399 42.2306 23.1999 39.1606C22.6199 38.5406 21.9499 37.6706 22.1499 36.7106C22.7999 36.2106 23.5499 36.4206 24.1399 36.8306C24.2399 37.4106 24.5899 37.7806 24.9599 38.2306C25.9699 39.4606 27.4199 40.7106 29.1699 41.1506C33.9499 42.3706 39.2199 39.6406 41.0899 36.7106C41.2699 36.4206 41.1199 35.8006 41.3199 35.5406C41.8699 35.1706 42.6399 35.1006 43.1899 35.5406L43.1799 35.5306Z" clip-rule="evenodd" fill-rule="evenodd"></path>
<path fill="#023150" d="M51.59 48.8509C51 50.5609 51.2 53.0609 49.72 53.8809C49.56 52.4609 49.72 48.2409 51.59 48.8509Z" clip-rule="evenodd" fill-rule="evenodd"></path>
<path fill="#023150" d="M35.4702 6.77953C35.8702 6.74953 35.8002 6.24953 36.0502 6.07953C39.3402 6.07953 41.8902 4.05953 44.7002 4.67953C44.6602 6.42953 45.3702 7.43953 45.4002 9.11953C46.8902 9.49953 48.5002 9.11953 49.9602 9.23953C51.0602 9.31953 52.4502 8.77953 53.1202 9.00953C54.8902 9.59953 53.3002 12.4595 53.2402 14.1495C53.3502 14.5895 53.7102 14.2295 54.0602 14.2695C55.3002 15.6195 58.3102 15.0695 59.5502 16.1395C59.6802 17.9395 57.5402 18.8895 57.8002 20.2295C58.0202 21.3595 60.2502 21.2595 60.8402 22.3295C61.2502 23.4995 60.7002 23.4095 60.1402 24.4295C60.0002 24.6795 60.0302 25.0595 59.9102 25.2495C59.5902 25.7395 58.9402 26.0095 58.9702 26.5395C59.0102 27.2695 60.1802 27.5695 60.9602 28.1795C62.1702 29.1195 64.2702 30.7895 63.0602 32.7395C61.9102 34.5995 57.4002 35.2895 56.2802 37.6495C57.7901 39.6895 58.0602 42.9595 59.6702 44.8995C59.3401 45.3695 59.8502 46.0195 59.5502 46.4195C58.0802 46.7095 55.8102 46.7595 54.0602 47.3495C53.4902 50.2795 53.1202 53.4395 53.1302 56.2295C51.1402 56.2995 48.8502 55.2995 46.7002 54.8295C45.1402 55.8795 45.1202 58.4695 44.2502 60.2095C43.2802 60.6995 42.9402 60.1095 42.1502 59.7395C40.9702 59.1995 38.9902 58.6295 38.4102 57.6395C36.4902 59.4995 35.4702 62.2595 33.3802 63.9495C30.9102 64.3895 30.6202 62.6595 29.1702 62.0795C29.0102 61.1095 28.4402 60.5495 27.7702 60.0895C27.4602 60.1695 27.5202 60.6195 27.1902 60.6695C26.7802 60.6895 26.8102 60.2795 26.4902 60.1995C25.5202 60.8295 25.0002 61.8995 23.3302 61.8395C22.9502 61.1995 22.7202 60.4195 22.3902 59.7395C22.0802 59.3895 21.2102 59.5895 21.3402 58.7995C19.7802 59.2295 18.7402 60.1795 16.7802 60.1995C15.4102 58.6195 15.9602 55.6795 15.7302 53.4195C13.5002 53.7995 11.9402 54.8495 9.42015 54.9395C8.87015 52.8695 9.53015 50.0495 9.07015 47.9295C7.93015 46.9195 5.39015 47.4295 3.93015 46.9995C3.45015 46.8595 2.66015 46.3995 2.88015 45.5995C3.12015 44.7095 3.93015 43.6695 4.28015 42.4395C4.63015 41.2395 4.76015 40.0895 5.10015 38.9295C3.55015 37.5595 1.57015 36.4095 0.430153 34.2595C-0.569847 32.3895 0.370153 31.4895 2.18015 30.6395C3.30015 30.1195 4.37015 30.0595 5.22015 29.4695C4.22015 26.3795 3.79015 22.7195 2.88015 19.5395C4.76015 18.7295 8.70015 19.4595 10.7102 19.0695C10.2402 16.2995 11.1702 12.6995 11.5302 9.48953C11.6602 8.27953 11.4802 7.23953 12.7002 7.02953C14.4502 6.73953 15.4302 8.28953 17.0202 8.54953C17.5202 7.02953 17.6802 5.34953 17.9502 3.87953C18.9402 3.06953 20.7302 4.84953 21.5702 5.62953C22.1602 6.16953 22.4202 6.95953 23.0902 7.02953C24.6902 4.22953 26.4102 1.54953 29.2802 0.0195312C31.2602 0.179531 32.1502 1.31953 33.3702 2.81953C34.4202 4.11953 35.4902 5.29953 35.4702 6.78953V6.77953ZM30.0902 12.6195C30.9002 11.2295 34.2802 7.75953 33.4802 5.95953C32.6802 4.16953 29.6502 0.649531 27.8702 3.15953C27.7602 3.64953 27.8302 3.71953 27.6402 4.20953C26.1602 5.37953 25.5602 7.41953 24.8302 9.34953C23.6202 10.7095 22.9802 12.6495 22.2602 14.4895C22.4802 15.4295 22.0902 16.5095 20.9702 16.4795C20.9602 16.2595 20.5802 16.3995 20.6202 16.1295C21.0502 13.5995 22.3502 11.9395 23.0702 9.69953C22.2902 9.41953 21.8902 8.76953 21.3202 8.29953C20.9102 9.40953 20.3402 10.3495 20.0302 11.5695C20.2002 11.8295 20.9602 11.4995 20.9702 11.9195C20.1502 14.8795 18.7102 17.2195 17.7002 19.9795C19.1202 18.8195 20.4102 17.5495 22.2602 16.8195C23.5802 13.5695 26.0002 9.88953 27.7502 6.41953C28.2102 5.50953 29.2802 1.86953 30.4402 3.25953C30.2402 3.91953 29.6602 4.81953 29.8602 5.47953C29.9002 4.79953 30.8202 3.94953 31.5002 4.65953C30.3602 8.53953 27.2702 11.1095 26.4802 14.9395C27.6102 12.9195 29.8202 9.36953 31.0402 7.22953C31.4302 6.54953 31.7402 4.97953 32.7902 5.93953C31.7402 9.25953 29.4702 11.3495 28.3502 14.5895C28.8802 14.6895 29.0102 14.3895 29.4002 14.3595C29.6802 13.8295 29.7302 13.2395 30.1002 12.6095L30.0902 12.6195ZM29.3902 6.30953C29.4402 6.10953 29.9402 5.77953 29.6202 5.60953C29.4902 5.71953 29.0502 6.10953 29.3902 6.30953ZM18.8702 8.17953C19.0602 8.33953 19.5502 8.07953 20.0402 8.17953C21.1002 6.39953 18.1702 5.45953 18.8702 8.17953ZM38.5002 14.1395C39.8302 14.4095 40.9402 14.8895 42.1202 15.3095C41.8602 13.1595 44.1602 12.2495 43.7602 9.92953C42.1801 10.9195 42.2602 13.5695 40.6002 14.4895C40.1502 14.0395 40.3802 13.4395 40.2502 12.8495C41.5702 11.4795 42.0402 9.25953 43.4102 7.93953C43.2702 7.45953 43.1802 6.91953 43.0602 6.41953H42.3602C41.7502 9.20953 39.4902 11.3295 38.5002 14.1295V14.1395ZM39.3202 7.35953C38.3602 9.58953 36.9502 11.3795 36.0502 13.6695C36.5802 13.7495 37.0702 14.1295 37.5702 13.8995C37.7202 11.1495 40.0602 9.61953 40.8402 7.11953C40.4402 6.67953 39.8902 7.09953 39.3202 7.34953V7.35953ZM34.6502 7.47953C34.3802 8.53953 33.7102 9.50953 33.0102 10.6395C32.2602 11.8695 30.6402 13.2695 31.4902 14.2595C32.2902 11.4695 34.4701 10.0695 35.3502 7.35953C34.9902 7.27953 35.0102 7.55953 34.6502 7.47953ZM36.7502 7.82953C35.6602 9.81953 34.1702 11.3995 33.3602 13.6695H34.4102C35.4202 11.6395 36.8602 10.0395 37.5702 7.70953C37.1702 7.61953 37.1202 7.87953 36.7502 7.82953ZM12.4402 13.2095C13.3602 12.3795 13.4802 10.7395 13.8402 9.34953C12.3302 9.58953 12.7202 12.0995 12.4402 13.2095ZM12.6702 17.2995C13.7102 16.5195 13.8902 15.1695 14.5402 13.7895C14.9302 12.9495 15.4602 11.9895 15.5902 11.3395C15.6802 10.8795 16.0402 10.1495 15.2402 9.93953C14.2402 12.1795 12.8402 14.9695 12.6702 17.2995ZM51.2402 10.8695C50.2602 11.6495 49.0802 15.9895 48.0802 16.1295C47.7502 16.1795 47.3402 16.0595 47.1402 15.6595C47.7602 14.0895 49.0102 12.5495 49.3602 11.0995C48.9802 11.0995 48.7802 10.8995 48.3102 10.9795C48.0502 11.6795 46.7402 13.3695 46.2102 14.4895C45.7102 15.5495 45.1702 17.1395 44.3402 15.4295C45.0202 13.9295 46.1002 12.8295 46.5602 11.1095C43.8902 11.2995 44.1702 14.3095 42.8202 15.5495C45.7002 16.6395 47.5602 18.7595 49.7202 20.5795C50.9202 19.4895 51.3202 17.5795 52.0602 16.0195C51.2902 16.0495 51.4602 15.3595 51.1202 15.1995C50.2102 16.1995 49.9602 17.8495 49.1302 18.9395C49.0202 18.6695 48.4602 18.8395 48.3102 18.5895C49.0302 15.6495 50.5802 13.5295 51.5802 10.8795H51.2302L51.2402 10.8695ZM17.1102 10.9895C16.6302 11.6795 16.2102 12.4295 16.0602 13.4495C15.3602 14.4095 14.9202 15.6695 14.4202 16.8395C13.9302 17.9995 13.2002 19.1995 13.2502 20.4595C14.9302 18.4395 15.6002 15.5795 16.7602 13.0995C17.0902 12.3995 17.7602 11.9495 17.6902 11.1095C17.3602 11.2095 17.3902 10.9495 17.1102 10.9895ZM24.0102 15.7795C24.4002 16.0495 24.7102 15.4395 25.1802 15.4295C25.0202 15.0795 24.8202 14.7795 24.7102 14.3795C24.4002 14.7695 24.2102 15.2795 24.0102 15.7795ZM13.8402 22.7895C13.4602 22.8195 13.3502 22.5795 12.9002 22.6695C12.2402 24.2195 11.2402 25.4495 11.1502 27.5795C11.2402 27.9195 11.7802 27.8095 11.7402 28.2795C11.3102 29.9495 10.6802 31.4295 10.2202 33.0695C10.6502 32.9895 11.1502 32.8295 11.2702 33.2995C10.5302 35.9495 8.98015 38.4995 8.00015 41.0095C7.67015 41.8395 7.29015 43.1195 7.42015 43.9295C8.80015 41.1395 9.50015 37.6695 11.6302 35.6295C11.3602 30.1395 13.6302 26.2795 15.0202 22.0695C15.3902 22.1195 15.3302 21.7495 15.6102 21.7195C16.4802 19.3495 17.7902 17.4295 18.5302 14.9395C18.1902 14.6795 17.7402 15.2095 17.7102 14.5895C17.7102 14.5195 17.6902 14.4495 17.5902 14.4695C15.8902 17.0095 15.5202 20.3895 13.8502 22.7695L13.8402 22.7895ZM33.3602 16.0095C28.0602 15.6595 22.6902 17.5195 19.8002 20.3395C18.4202 21.6895 16.9702 23.9995 15.7102 26.1795C13.4302 30.1295 12.5002 34.8295 13.9602 40.1995C17.7202 47.1795 26.2702 50.4695 36.8702 49.5495C37.3801 49.5095 37.3202 48.9095 37.8102 48.8495C38.3102 48.6995 38.3902 48.8495 38.9802 48.8495C43.8302 45.9895 49.0401 43.4895 49.8502 36.5795C52.1101 33.1595 51.0102 25.4995 49.0302 22.6695C48.4402 21.8195 47.3102 20.8695 46.3402 19.9795C44.3702 18.1695 41.8902 17.0495 39.0902 16.1195C37.5502 15.6095 35.8602 15.4795 34.3002 15.2995C33.9402 15.4895 33.8002 15.8895 33.3702 15.9995L33.3602 16.0095ZM53.4602 16.3595C52.4802 18.1895 51.4602 19.9695 50.8902 22.1995C51.1902 22.2095 51.0602 22.6595 51.3602 22.6695C51.6202 22.4195 51.2602 22.2695 51.3602 21.8495C52.7602 20.4795 53.2901 18.2495 54.2802 16.4695C54.1301 16.3095 53.7702 16.3495 53.4602 16.3495V16.3595ZM55.6802 16.8295C54.6802 18.3995 53.8202 20.1095 53.1102 21.9695C53.9902 21.3695 54.3002 20.1995 54.7502 19.1695C55.4202 18.8295 55.6402 18.0295 56.3902 17.7695C56.6602 17.8095 56.8702 17.9995 57.0902 17.7695C57.1202 17.6795 57.0902 17.5395 57.2102 17.5395C57.1202 16.8895 56.2402 17.0295 55.6902 16.8395L55.6802 16.8295ZM8.59015 20.9195C7.49015 23.0695 5.37015 25.9195 6.72015 28.7495C7.01015 28.7695 7.08015 28.5695 7.30015 28.5195C7.57015 28.8395 7.65015 29.3395 8.00015 29.5695C8.45015 28.7695 8.39015 27.4595 9.64015 27.4695C10.4402 25.5795 11.3502 23.7995 11.5102 21.2795C11.0802 21.3195 10.8602 21.1495 10.5702 21.0495C9.32015 22.8395 8.77015 25.3295 7.30015 26.8895C5.17015 25.7595 9.70015 22.5895 8.94015 20.9295H8.59015V20.9195ZM4.85015 21.2695C4.93015 22.4695 5.35015 23.3395 5.55015 24.4195C6.23015 23.4995 6.64015 22.3095 6.95015 21.0295C6.18015 21.0395 5.30015 20.9395 4.85015 21.2595V21.2695ZM52.8802 26.8795C53.4602 25.0995 55.3402 23.0895 55.1002 21.6195C54.2701 23.1395 52.6502 25.0695 52.8802 26.8795ZM56.7402 22.1995C55.7302 23.4495 55.2602 25.2395 54.4002 26.6395C54.6602 26.7695 54.8802 26.9395 55.3402 26.8695C56.1502 25.4995 56.5002 23.6695 57.4402 22.4295C57.2302 22.3295 57.1402 22.0995 56.7402 22.1995ZM51.7202 23.3695C51.7502 23.8495 51.7402 24.3695 52.0702 24.5395C52.2402 23.6995 52.7402 23.1895 53.0002 22.4395C52.4702 22.6495 52.5802 23.4995 51.7202 23.3795V23.3695ZM57.8002 25.2395C58.1802 24.6095 58.7201 24.1395 58.8502 23.2495C58.6402 23.1395 58.7002 22.7695 58.2702 22.8995C58.3902 23.8795 57.3802 24.3495 57.8002 25.2395ZM56.8602 28.9795C57.2802 28.9295 57.4202 28.6095 57.4502 28.1595C57.0602 28.2395 56.8102 28.4595 56.8602 28.9795ZM9.64015 28.7495C9.00015 30.4895 8.21015 32.0795 7.65015 33.8895C8.01015 33.8095 7.99015 34.0895 8.35015 34.0095C9.23015 32.5595 9.76015 30.7395 10.3402 28.9895C10.1302 28.8895 10.0402 28.6595 9.64015 28.7595V28.7495ZM54.6402 29.2195C54.1102 31.4095 52.8002 32.8295 52.4202 35.1795C53.0502 34.2995 53.4602 33.2395 53.9402 32.2595C54.4402 31.2395 54.9402 30.1895 55.3402 29.1095C55.3102 29.0195 55.3402 28.8795 55.2202 28.8695C55.1102 29.0795 54.8102 29.0795 54.6402 29.2195ZM53.1202 29.6895C53.1702 29.4695 53.3702 29.3995 53.3502 29.1095C52.8402 28.9295 52.7201 29.6395 53.1202 29.6895ZM54.1702 37.8695C53.8502 40.3695 52.2302 42.5395 51.6002 45.1195C51.1202 45.5895 50.5102 46.0795 50.3102 46.7595C49.7002 48.8795 49.2902 51.7395 48.5602 53.7695C49.4802 53.9795 50.3602 54.2295 51.4802 54.2395C51.9002 49.1695 52.5202 43.4495 54.7502 39.3995H55.1002C54.9802 38.4995 55.4402 38.1895 55.6802 37.6495C55.3302 35.0395 58.1101 31.9295 58.6002 29.1195C56.7001 31.6195 55.9002 35.2195 54.1602 37.8795L54.1702 37.8695ZM59.7802 32.9595C60.4602 32.5495 61.3502 32.3395 61.6502 31.5595C61.0502 30.9995 60.8602 30.0095 59.9002 29.8095C59.4302 30.7095 59.0702 31.7095 58.7302 32.7295C59.4502 32.3495 59.7701 30.9595 60.6002 31.0895C60.3502 31.6595 59.6402 32.3795 59.7802 32.9595ZM5.44015 34.3595C4.99015 34.4595 4.56015 34.5495 4.39015 34.1295C4.27015 32.7595 5.12015 32.3695 5.32015 31.3295C3.74015 31.6595 4.38015 34.2095 3.10015 34.8395C4.04015 35.7395 4.83015 36.7695 6.37015 37.0595C6.43015 36.6895 6.74015 36.5695 6.72015 36.1195C5.51015 35.4595 5.98015 34.7895 6.49015 33.4295C6.97015 32.1295 7.44015 31.0995 7.78015 30.1595C7.75015 30.0695 7.68015 30.0195 7.55015 30.0395C6.75015 31.3795 6.07015 32.8395 5.45015 34.3695L5.44015 34.3595ZM1.93015 33.1895C2.15015 33.3595 2.10015 33.7895 2.51015 33.7695C2.55015 33.0695 3.03015 32.8095 3.09015 32.1295C2.50015 32.2795 2.03015 32.5495 1.92015 33.1795L1.93015 33.1895ZM53.3502 37.0495C53.4402 36.8895 53.6102 36.2295 53.4702 36.2295C53.3502 36.4495 52.8601 36.8995 53.3502 37.0495ZM8.00015 36.5795C6.71015 39.0695 5.61015 42.3695 5.08015 45.2295C5.59015 45.2295 6.72015 45.7295 6.95015 45.2295C6.82015 44.8095 6.18015 45.4495 6.13015 45.1095C5.40015 41.8395 8.25015 39.5195 8.35015 36.6995C8.20015 36.6995 8.19015 36.5495 8.00015 36.5795ZM53.1102 37.7495C53.5802 37.8195 53.4802 37.2695 53.2302 37.1595C53.1302 37.2995 53.0802 37.4695 53.1102 37.7495ZM8.35015 45.4595C8.60015 45.5595 8.75015 45.7595 9.17015 45.6895C10.1802 43.9795 10.4302 41.2495 11.2702 39.3795C11.5702 38.7095 12.2402 38.2995 11.8502 37.6295C11.7002 37.6295 11.6902 37.4795 11.5002 37.5095C10.4402 40.1495 8.97015 42.3795 8.34015 45.4595H8.35015ZM48.9002 48.4995C49.1802 47.0995 49.2201 45.4695 50.3002 44.8795C50.9402 42.5595 52.2302 40.8895 52.7502 38.4495C52.6402 38.1295 52.3802 38.6095 52.0502 38.4495C51.0502 41.1895 49.7602 43.6395 48.6602 46.2795C48.4602 46.2795 48.3002 46.3095 48.1902 46.3995C47.8302 46.2195 47.6202 45.8795 47.7202 45.2295C47.0502 45.1795 46.9802 45.7395 46.6702 46.0495C49.1002 45.9595 45.8801 51.2995 46.4402 53.0595C46.7901 53.2195 47.1102 53.4795 47.4902 53.2895C47.9602 51.6995 48.1502 49.8295 48.8902 48.4995H48.9002ZM11.1502 46.6295C11.8802 45.2495 12.2802 43.5495 13.1402 42.3095C12.6602 41.8495 12.9302 40.6495 12.2102 40.4395C11.9402 42.4195 9.84015 44.9295 11.1602 46.6295H11.1502ZM54.0402 45.5795C54.4002 45.5895 54.6002 45.4395 54.8602 45.3495C54.9302 44.0595 55.0702 41.9695 56.3802 41.9595C56.0902 41.5395 56.0902 40.8495 55.5602 40.6695C55.1002 42.2295 53.7702 44.0495 54.0402 45.5795ZM56.1402 45.1095C56.5302 45.3895 57.1902 45.1195 57.5402 44.9895C57.3202 44.1495 57.1202 43.3095 56.4902 42.8895C56.2802 43.5395 56.3602 44.4695 56.1402 45.1095ZM13.7202 43.5895C12.6602 46.3895 11.1302 49.3295 11.0302 52.7095C12.0002 52.6195 12.8402 52.4195 13.6002 52.1295C13.9502 51.1295 14.4002 49.8595 14.7702 48.6195C15.0902 47.5395 15.9702 45.8695 15.2402 45.2295C14.0802 47.1495 13.6802 49.8195 12.4402 51.6595C11.7402 51.5695 11.6502 50.7395 11.7402 50.3695C12.1702 48.5195 14.4802 45.4395 14.0802 43.5895H13.7302H13.7202ZM44.9202 47.3295C44.2802 50.5795 43.6101 53.8095 43.1702 57.2595C43.9802 56.3495 44.5302 55.1895 44.5702 53.5195C44.7402 53.3095 44.9402 53.1095 45.1502 52.9395C45.4802 50.6495 46.3902 48.3295 46.4402 46.1595C45.8601 46.4795 45.4002 46.9195 44.9202 47.3295ZM16.7502 46.7495C15.9602 48.0995 15.4902 49.7695 15.1102 51.5395C15.8302 51.4395 16.2602 50.8395 16.8602 50.9595C17.5102 50.0095 17.6802 48.5895 18.1502 47.4495C17.8202 47.0795 17.4602 46.7395 16.7502 46.7495ZM19.2002 48.2695C18.3302 50.8695 17.0102 53.6395 17.5602 56.6895C18.0802 53.6995 19.3102 51.4195 19.9002 48.5095C19.5302 48.5695 19.6402 48.1495 19.2002 48.2795V48.2695ZM41.8702 49.0895C40.8602 51.1395 40.0702 53.9695 39.8802 56.4595C41.2402 54.6795 40.8002 51.0895 42.1002 49.5595C42.5902 49.2695 42.7902 49.6395 43.2702 49.6795C43.3902 49.3695 43.4102 48.9595 43.3902 48.5095C42.7802 48.5995 42.4802 48.9995 41.8702 49.0895ZM18.7302 57.9695C20.1702 57.3895 20.2202 55.4995 20.7202 54.1095C21.2402 52.6695 21.9202 51.2095 22.2402 49.7895C21.8302 49.5695 21.6002 49.1895 21.0702 49.0895C20.2402 51.9295 18.6902 54.6495 18.7302 57.9695ZM21.1802 56.5695C21.7002 56.6195 21.8002 56.2495 22.1102 56.0995C22.4902 53.9495 23.3802 52.2995 23.8602 50.2595C23.7102 50.2595 23.7002 50.1095 23.5102 50.1395C22.5902 52.1395 21.7002 54.1695 21.1702 56.5695H21.1802ZM38.0102 51.3095C37.5702 52.9195 37.4402 54.1495 37.5402 55.8695C38.0502 55.8695 38.1702 56.2595 38.5902 56.3395C39.0502 54.4295 39.5002 52.4995 39.8802 50.4995C39.0802 50.5995 38.5702 50.9795 38.0102 51.3195V51.3095ZM41.5202 57.8495C42.7102 57.1195 42.2302 55.0995 42.4602 53.6395C42.6402 52.4795 43.1702 51.4695 42.9302 50.4895C42.3202 52.6495 41.0902 55.4095 41.5302 57.8495H41.5202ZM25.1602 50.5995C24.6302 51.3995 24.3602 52.5895 23.8702 53.9895C23.1802 55.9695 22.3302 57.3695 23.7502 58.4295C24.1502 55.6695 25.2902 53.0395 25.7402 50.7195C25.6002 50.6195 25.4302 50.5595 25.1602 50.5995ZM26.5602 51.6495C26.2902 54.0395 25.0602 56.4595 24.6902 59.1295C27.8902 58.1995 27.4902 54.2395 28.6602 51.1795C28.0902 50.9795 26.8902 50.9895 26.5602 51.6495ZM29.9502 51.5295C29.2902 53.6495 27.0902 57.9495 29.2502 59.0095C29.7602 56.4095 30.4102 53.9395 31.1202 51.5295H29.9502ZM35.2102 51.6495C34.5802 53.9295 33.4602 56.9495 32.9902 59.3595C32.8302 60.1995 33.1602 61.1995 32.0502 61.3495C31.3002 60.5695 31.8702 59.0595 32.1702 57.8395C32.6902 55.7495 33.5702 53.7195 33.6902 51.7595C33.4102 51.6895 33.1602 51.5895 32.7602 51.6395C31.2902 53.8295 30.9302 57.1295 30.1902 60.0595C30.9402 60.9095 31.3702 62.0795 33.0002 62.0495C33.6102 61.4995 34.0402 60.7495 34.4002 59.9495C34.3702 59.5395 33.9702 60.2395 33.9302 59.8295C34.3402 57.2795 34.9202 53.9895 36.1502 51.8795C36.4002 51.9195 36.8502 52.2095 36.7302 51.6395C36.2902 51.4995 35.8102 51.6195 35.2102 51.6395V51.6495ZM34.8602 59.1295C35.7902 58.2995 36.4502 57.2095 36.9602 55.9695C36.4002 55.9895 36.6102 55.2295 36.1402 55.1495C35.7602 56.5295 35.3002 57.8195 34.8502 59.1195L34.8602 59.1295Z" clip-rule="evenodd" fill-rule="evenodd"></path>
</g>
<defs>
<clipPath id="clip0_910_2407">
<rect fill="white" height="64" width="63.41"></rect>
</clipPath>
</defs>
</svg>
