<svg xmlns="http://www.w3.org/2000/svg" fill="none" viewBox="0 0 62 56" height="56" width="62">
<g clip-path="url(#clip0_1016_2661)">
<path fill="#0F2341" d="M1.52736 39.5812C11.3144 34.7481 19.1914 27.2058 24.4367 17.6795C25.0594 16.5503 23.3214 15.5401 22.6987 16.6694C17.6045 25.9212 10.0115 33.163 0.51114 37.8536C-0.648396 38.426 0.370432 40.151 1.52736 39.5812Z"></path>
<path fill="#0F2341" d="M13.1794 30.5188C7.413 18.405 22.4583 6.53466 32.0473 1.84404C31.5887 1.7249 31.1301 1.60575 30.6715 1.48661C33.2615 7.48004 34.2022 14.9861 31.4688 21.1194C28.3863 28.0375 20.9027 28.6228 14.1878 28.5529C12.8928 28.5399 12.8928 30.5395 14.1878 30.5524C21.2753 30.6275 29.5458 29.7961 33.0192 22.6682C36.3806 15.7683 35.3539 7.28837 32.4095 0.47648C32.1854 -0.0441254 31.4714 -0.0959269 31.0337 0.119049C20.2304 5.4028 5.0809 18.1641 11.4414 31.5289C11.9938 32.6918 13.7292 31.6765 13.1794 30.5188Z"></path>
<path fill="#0F2341" d="M14.6285 49.8787C25.1242 46.7447 35.9014 45.6543 46.8141 46.6023C48.1039 46.7136 48.0961 44.7141 46.8141 44.6027C35.7242 43.6392 24.7516 44.7685 14.0943 47.9491C12.8566 48.3195 13.3855 50.2491 14.6285 49.8761V49.8787Z"></path>
<path fill="#0F2341" d="M29.0405 46.4045C33.2279 42.9856 38.5722 39.3207 44.0129 38.3572C49.7089 37.347 57.3905 42.1853 58.7429 48.0233C60.1943 54.2835 48.552 54.2291 44.5366 53.9649C39.7942 53.6515 27.4953 53.1439 28.4099 46.0756C28.5741 44.8039 26.5599 44.8142 26.3983 46.0756C25.4134 53.7008 34.8825 54.7627 40.3284 55.5009C47.9162 56.5291 55.4545 56.3271 61.6977 51.4552C61.9505 51.2583 62.0704 50.7766 61.9557 50.4813C59.4881 44.1382 55.3268 37.6009 48.023 36.3628C40.7427 35.1273 32.9022 40.6779 27.6178 44.9903C26.6172 45.8088 28.0477 47.2152 29.0405 46.4045Z"></path>
</g>
<defs>
<clipPath id="clip0_1016_2661">
<rect fill="white" height="56" width="62"></rect>
</clipPath>
</defs>
</svg>
