<svg xmlns="http://www.w3.org/2000/svg" fill="none" viewBox="0 0 49 59" height="59" width="49">
<g clip-path="url(#clip0_1016_2851)">
<path fill="#0F2341" d="M0.0194018 30.2941C0.297159 35.728 9.38751 35.7999 13.1392 35.8954C20.1457 36.0747 28.8501 35.9399 34.4665 31.0949C38.2364 27.8422 38.6133 22.2121 34.0296 19.5207C27.8486 15.8925 18.68 17.4927 12.1781 19.2028C6.54604 20.6852 0.139372 23.6108 0.0194018 30.2941C0.00766555 30.9366 1.00133 30.9366 1.01307 30.2941C1.10435 25.2528 5.27983 22.5484 9.6105 21.0254C15.7746 18.86 23.2519 17.6445 29.7212 19.0104C31.9993 19.4919 34.606 20.4288 35.8253 22.5785C37.1045 24.8342 36.403 27.5203 34.786 29.3835C30.6353 34.167 23.1841 34.6655 17.3329 34.871C13.9255 34.99 10.4425 34.9638 7.08069 34.3371C4.86124 33.9237 1.15651 33.1138 1.01307 30.2941C0.980467 29.6556 -0.0145029 29.6517 0.0194018 30.2941Z"></path>
<path fill="#0F2341" d="M0.0193948 30.997C-0.313131 41.3595 3.56764 56.2283 16.5088 55.0795C17.1412 55.0232 17.1464 54.0249 16.5088 54.0825C4.15315 55.1789 0.698791 40.8113 1.01306 30.997C1.03393 30.3545 0.0389552 30.3558 0.0193948 30.997Z"></path>
<path fill="#0F2341" d="M23.8575 54.6448C26.5555 54.4655 29.337 53.4986 31.6112 52.0528C34.8947 49.9659 36.6213 47.0443 37.3189 43.2865C38.4495 37.2037 38.1352 30.6839 37.4454 24.558C37.375 23.9273 36.38 23.9195 36.4517 24.558C37.0555 29.9198 37.2785 35.4766 36.6773 40.8437C36.2196 44.9325 35.0995 48.4482 31.5591 50.8949C29.3552 52.4179 26.549 53.4685 23.8562 53.6478C23.2211 53.6897 23.2159 54.688 23.8562 54.6448H23.8575Z"></path>
<path fill="#0F2341" d="M10.7697 54.1466C10.4932 56.3316 11.0696 58.641 13.4495 58.8909C16.6639 59.2298 20.083 58.7077 23.2674 58.3008C25.8911 57.9645 29.3481 57.8729 31.7488 56.6287C33.8053 55.5623 33.6866 52.3711 33.5523 50.3588C33.5106 49.7216 32.5156 49.7163 32.5586 50.3588C32.689 52.3227 32.8768 55.2627 30.6743 55.9483C28.2958 56.6875 25.7294 56.9872 23.2688 57.3038C20.662 57.6387 18.0253 57.9161 15.3951 57.9488C14.6544 57.958 13.4638 58.115 12.7714 57.7814C11.6395 57.2358 11.6225 55.2601 11.7647 54.1466C11.8455 53.512 10.8505 53.5173 10.771 54.1466H10.7697Z"></path>
<path fill="#0F2341" d="M37.9106 30.8451C38.9094 29.2423 40.7598 28.104 42.6468 28.0478C46.3502 27.9365 48.2502 30.8399 47.9711 34.247C47.7325 37.1674 46.2915 40.2382 43.9221 42.0072C42.1278 43.347 39.2159 44.5978 36.9573 43.6911C36.364 43.4529 36.1058 44.4172 36.6926 44.6528C39.4141 45.7453 42.9949 44.1242 45.037 42.3879C47.6516 40.1662 49.2047 36.2789 48.9791 32.8614C48.5553 26.4659 40.2669 25.1837 37.0525 30.3414C36.7122 30.887 37.5715 31.3881 37.9106 30.8451Z"></path>
<path fill="#0F2341" d="M2.21804 33.1412C2.21804 33.1412 0.949222 25.0905 17.3734 23.7887C33.7989 22.4881 36.0653 28.4649 36.0653 28.4649C36.0653 28.4649 33.8537 34.2062 19.1299 35.2857C4.40619 36.3651 2.21673 33.1412 2.21673 33.1412H2.21804Z"></path>
<path fill="#0F2341" d="M2.69692 33.0094C2.32137 30.4515 5.17718 27.7601 7.54268 26.5903C11.6699 24.5505 16.6109 24.1659 21.1332 24.107C24.6345 24.0625 28.3171 24.2889 31.6045 25.6077C33.1902 26.2449 34.09 27.187 35.3458 28.2102C35.7487 28.5386 35.3953 28.9154 35.6274 28.2337C35.5349 28.5045 35.3301 28.7636 35.1645 28.9887C31.448 34.0496 22.672 34.6279 17.1325 34.9092C13.2413 35.1068 9.07621 35.2127 5.28672 34.1359C4.51343 33.9161 2.95382 33.3208 2.64737 32.8877C2.27964 32.3696 1.41637 32.8668 1.78932 33.3914C2.27964 34.0823 3.20158 34.4591 3.95792 34.7496C7.0641 35.9441 10.6541 36.0226 13.9298 36.0043C19.1694 35.9729 24.6802 35.5843 29.6355 33.7369C31.8575 32.9086 34.1656 31.7455 35.7161 29.8875C36.1895 29.321 36.642 28.8212 36.4438 28.1002C36.1491 27.026 34.5973 26.0487 33.734 25.5384C30.9434 23.8872 27.5451 23.373 24.3633 23.1793C19.2593 22.8692 13.6442 23.1819 8.80497 24.9771C5.51622 26.1978 1.13079 29.1313 1.73977 33.275C1.83236 33.9083 2.79081 33.6387 2.69823 33.0094H2.69692Z"></path>
<path fill="#0F2341" d="M37.9094 34.9901C38.5015 33.9591 39.2787 32.9582 40.2006 32.2045C42.0354 30.7025 44.7934 30.9655 44.9825 33.6987C45.2733 37.9 41.0117 41.4301 37.1296 41.5047C36.4906 41.5165 36.488 42.5148 37.1296 42.5017C41.6611 42.414 47.3375 37.641 45.7988 32.5931C45.1924 30.6031 43.0382 29.7264 41.146 30.4644C39.3804 31.1526 37.9746 32.8797 37.0501 34.4877C36.7306 35.0451 37.5886 35.5475 37.9081 34.9914L37.9094 34.9901Z"></path>
<path fill="#0F2341" d="M7.37642 45.6953C7.77415 47.6081 9.20857 49.1298 11.0733 49.6728C11.6888 49.8521 11.9522 48.8904 11.338 48.7111C9.79017 48.2597 8.66349 47.0089 8.33488 45.431C8.20447 44.8029 7.24602 45.0685 7.37642 45.6966V45.6953Z"></path>
<path fill="#0F2341" d="M13.4831 50.7431C14.1234 50.7431 14.1234 49.7461 13.4831 49.7461C12.8429 49.7461 12.8429 50.7431 13.4831 50.7431Z"></path>
<path fill="#0F2341" d="M15.0169 13.1373C15.2582 11.4167 15.4159 9.66872 15.4186 7.93115C15.4199 6.56779 15.5007 3.74556 13.7233 3.33603C12.0138 2.94089 11.2053 5.13116 11.2835 6.45527C11.4204 8.76461 12.8614 11.3526 14.1093 13.2577C14.4588 13.7915 15.3208 13.293 14.9674 12.7539C14.1758 11.5463 13.5095 10.2261 12.9839 8.88236C12.5719 7.8291 12.019 6.56387 12.3645 5.42032C12.4728 5.06312 12.8001 4.35004 13.2695 4.30817C13.9098 4.2506 14.1028 4.98331 14.2176 5.4177C14.8291 7.71527 14.3832 10.5453 14.0585 12.8717C13.9711 13.4997 14.9282 13.7706 15.0169 13.1373Z"></path>
<path fill="#0F2341" d="M13.6701 14.4888C12.7142 13.1595 11.5563 11.8864 10.1975 10.9679C8.91823 10.1031 6.82919 9.65165 6.15501 11.5044C5.48474 13.3479 7.22952 14.9991 8.84521 15.4819C10.2744 15.9085 11.9801 15.7305 13.3715 15.2202C13.9674 15.0017 13.7105 14.0374 13.1068 14.2586C12.3426 14.5386 11.5093 14.689 10.6995 14.7073C9.31726 14.7374 6.40147 13.8673 7.07565 11.8956C7.96499 9.29315 12.0909 13.9916 12.8107 14.9913C13.1811 15.5068 14.0444 15.0096 13.6688 14.4875L13.6701 14.4888Z"></path>
<path fill="#0F2341" d="M9.82937 6.79887C9.25429 4.70672 7.59557 -1.16802 4.42549 0.203187C2.39121 1.08244 2.86849 3.4572 4.24423 4.68186C5.59651 5.88429 7.41823 7.02915 9.21778 7.41251C9.84241 7.54597 10.1084 6.58429 9.4825 6.45083C8.46145 6.23364 7.48343 5.7142 6.60191 5.1699C5.65388 4.58504 3.96648 3.64953 3.99516 2.35159C4.01603 1.43178 4.97579 0.7187 5.84297 1.14262C7.01007 1.71309 7.67642 3.66 8.10414 4.76822C8.39494 5.51925 8.65575 6.28728 8.86961 7.06447C9.03913 7.68204 9.99889 7.42036 9.82806 6.79887H9.82937Z"></path>
</g>
<defs>
<clipPath id="clip0_1016_2851">
<rect fill="white" height="59" width="49"></rect>
</clipPath>
</defs>
</svg>
